STARTFONT 2.1
FONT -Adobe-ITC Bookman-Light-I-Normal--33-240-100-100-P-188-ISO8859-1
SIZE 24 100 100
FONTBOUNDINGBOX 49 34 -7 -7

STARTPROPERTIES 26
_DEC_DEVICE_FONTNAMES "PS=Bookman-LightItalic"
FONTNAME_REGISTRY ""
FAMILY_NAME "ITC Bookman"
FOUNDRY "Adobe"
WEIGHT_NAME "Light"
SLANT "I"
SETWIDTH_NAME "Normal"
ADD_STYLE_NAME ""
PIXEL_SIZE 33
POINT_SIZE 240
RESOLUTION_X 100
RESOLUTION_Y 100
SPACING "P"
AVERAGE_WIDTH 188
CHARSET_REGISTRY "ISO8859"
CHARSET_ENCODING "1"
CHARSET_COLLECTIONS "ASCII ISO8859-1 ADOBE-STANDARD"
FULL_NAME "ITC Bookman Light Italic"
COPYRIGHT "Copyright (c) 1991 Adobe Systems, Inc."
CAP_HEIGHT 23
X_HEIGHT 16
WEIGHT 10
QUAD_WIDTH 25
DEFAULT_CHAR 0
FONT_DESCENT 7
FONT_ASCENT 27
ENDPROPERTIES

CHARS 190

STARTCHAR space
ENCODING 32
SWIDTH 300 0
DWIDTH 10 0
BBX 1 1 0 0
BITMAP
00
ENDCHAR

STARTCHAR exclam
ENCODING 33
SWIDTH 320 0
DWIDTH 11 0
BBX 8 23 4 0
BITMAP
0E
0F
1F
1E
1E
1E
1E
1C
1C
1C
18
18
38
30
30
30
30
00
00
60
F0
F0
60
ENDCHAR

STARTCHAR quotedbl
ENCODING 34
SWIDTH 360 0
DWIDTH 12 0
BBX 9 8 4 15
BITMAP
3180
7380
7380
6300
6300
C600
C600
8400
ENDCHAR

STARTCHAR numbersign
ENCODING 35
SWIDTH 620 0
DWIDTH 21 0
BBX 16 23 4 0
BITMAP
030C
060C
060C
061C
0618
0618
0618
7FFF
7FFF
0C18
0C38
0C30
0C30
0C30
FFFE
FFFE
1830
1870
1860
1860
1860
3860
3060
ENDCHAR

STARTCHAR dollar
ENCODING 36
SWIDTH 620 0
DWIDTH 20 0
BBX 17 29 3 -3
BITMAP
003000
003000
003000
002000
01FC00
072F00
1C6380
1C6380
384380
384380
384000
3E4000
3FC000
1FFC00
07FE00
00FF00
009F80
008780
F18380
F18380
F18700
E10700
F10E00
3D7800
1FE000
030000
030000
020000
020000
ENDCHAR

STARTCHAR percent
ENCODING 37
SWIDTH 800 0
DWIDTH 26 0
BBX 25 23 2 0
BITMAP
0F801800
18C01800
30E03000
70606000
6060E000
E060C000
E0618000
C0E38000
C0E30000
C0C63E00
C1CCE300
E19DC380
63198180
3E338180
00630180
00E30180
00C70380
01870380
03070300
07070700
06030600
0C038C00
0C00F800
ENDCHAR

STARTCHAR ampersand
ENCODING 38
SWIDTH 820 0
DWIDTH 27 0
BBX 26 23 2 0
BITMAP
003E0000
00E78000
01C18000
03818000
03838000
03838000
03C70000
03CE0000
01FC1800
01F03800
0FF87C00
1C7C7C00
383E1C00
701E1800
F00F1800
F0073000
E007A000
E003E180
F003C3C0
F001E3C0
7807E1C0
3E3CF180
0FF03F00
ENDCHAR

STARTCHAR quoteright
ENCODING 39
SWIDTH 280 0
DWIDTH 9 0
BBX 4 8 5 15
BITMAP
60
F0
F0
70
20
60
C0
80
ENDCHAR

STARTCHAR parenleft
ENCODING 40
SWIDTH 280 0
DWIDTH 9 0
BBX 10 28 3 -5
BITMAP
01C0
0380
0600
0E00
1C00
1C00
1C00
3800
3800
3800
3800
7000
7000
7000
7000
7000
6000
E000
E000
E000
E000
E000
E000
E000
6000
7000
3800
1800
ENDCHAR

STARTCHAR parenright
ENCODING 41
SWIDTH 280 0
DWIDTH 9 0
BBX 10 28 -1 -5
BITMAP
0700
0380
0380
01C0
01C0
01C0
01C0
01C0
01C0
01C0
01C0
0380
0380
0380
0380
0380
0300
0700
0700
0700
0F00
0E00
0E00
1C00
1C00
3800
7000
E000
ENDCHAR

STARTCHAR asterisk
ENCODING 42
SWIDTH 440 0
DWIDTH 15 0
BBX 12 12 5 11
BITMAP
0300
0380
3330
7B70
7AF0
1FC0
0F00
FFE0
F6E0
EE60
0E00
0E00
ENDCHAR

STARTCHAR plus
ENCODING 43
SWIDTH 600 0
DWIDTH 20 0
BBX 17 17 3 1
BITMAP
01C000
01C000
01C000
01C000
01C000
01C000
01C000
FFFF80
FFFF80
FFFF80
01C000
01C000
01C000
01C000
01C000
01C000
01C000
ENDCHAR

STARTCHAR comma
ENCODING 44
SWIDTH 300 0
DWIDTH 10 0
BBX 4 8 3 -4
BITMAP
60
F0
F0
70
30
60
C0
80
ENDCHAR

STARTCHAR minus
ENCODING 45
SWIDTH 600 0
DWIDTH 20 0
BBX 17 3 3 8
BITMAP
FFFF80
FFFF80
FFFF80
ENDCHAR

STARTCHAR period
ENCODING 46
SWIDTH 300 0
DWIDTH 10 0
BBX 4 4 3 0
BITMAP
60
F0
F0
60
ENDCHAR

STARTCHAR slash
ENCODING 47
SWIDTH 600 0
DWIDTH 20 0
BBX 16 29 3 -5
BITMAP
0007
000E
000E
001C
001C
003C
0038
0038
0070
0070
00E0
00E0
01C0
01C0
03C0
0380
0380
0700
0700
0E00
0E00
1C00
1C00
3C00
3800
3800
7000
7000
E000
ENDCHAR

STARTCHAR zero
ENCODING 48
SWIDTH 620 0
DWIDTH 20 0
BBX 18 23 3 0
BITMAP
01FC00
03CF00
0F0780
0E0380
1C0380
3801C0
3801C0
7801C0
7001C0
F001C0
F003C0
F003C0
F003C0
E003C0
E00380
E00780
E00780
E00700
700E00
701E00
783C00
3EF000
0FE000
ENDCHAR

STARTCHAR one
ENCODING 49
SWIDTH 620 0
DWIDTH 20 0
BBX 11 23 5 0
BITMAP
03E0
1FE0
03E0
01C0
01C0
01C0
01C0
03C0
03C0
0380
0380
0380
0380
0780
0780
0700
0700
0700
0F00
0F00
0F00
1F00
FFE0
ENDCHAR

STARTCHAR two
ENCODING 50
SWIDTH 620 0
DWIDTH 20 0
BBX 19 23 2 0
BITMAP
007E00
01FF80
0787C0
0E03C0
0C01E0
1C01E0
1E01E0
1E01E0
0C03C0
0003C0
000780
000F00
001E00
003C00
007800
00F000
01C000
0380C0
0E01C0
380380
7FFF80
7FFF00
FFFF00
ENDCHAR

STARTCHAR three
ENCODING 51
SWIDTH 620 0
DWIDTH 20 0
BBX 19 23 2 0
BITMAP
00FF00
07C780
0E03C0
1E01E0
1E01E0
1E01E0
1C01C0
0003C0
000780
001E00
01F800
000F00
000780
0003C0
0003C0
0003C0
7003C0
F003C0
F00780
E00780
F01F00
7C7C00
1FF000
ENDCHAR

STARTCHAR four
ENCODING 52
SWIDTH 620 0
DWIDTH 20 0
BBX 19 23 2 0
BITMAP
000780
000F80
001F80
001F80
003780
006700
00C700
018700
030F00
060F00
0C0F00
1C0E00
380E00
300E00
601E00
FFFFE0
FFFFE0
001C00
001C00
003C00
003C00
007E00
01FF80
ENDCHAR

STARTCHAR five
ENCODING 53
SWIDTH 620 0
DWIDTH 20 0
BBX 17 23 3 0
BITMAP
0FFF80
0FFF80
0FFF00
180000
180000
180000
180000
10F800
37FE00
3E1F00
380F00
300780
000780
000780
000780
000780
600700
F00F00
E00E00
E01E00
E03C00
79F000
3FE000
ENDCHAR

STARTCHAR six
ENCODING 54
SWIDTH 620 0
DWIDTH 20 0
BBX 19 23 3 0
BITMAP
003E00
01FF80
0381C0
0701E0
0E01E0
1C00C0
3C0000
380000
787C00
7BFF00
7F0F80
7C0780
F803C0
F803C0
F003C0
F003C0
F00380
700780
700700
780F00
3C1E00
1FF800
03C000
ENDCHAR

STARTCHAR seven
ENCODING 55
SWIDTH 620 0
DWIDTH 20 0
BBX 17 23 5 0
BITMAP
3FFF80
7FFF80
7FFF80
600700
C00E00
800C00
001800
003000
007000
00E000
00C000
01C000
038000
038000
070000
0F0000
0E0000
1E0000
1E0000
3C0000
3C0000
3C0000
7C0000
ENDCHAR

STARTCHAR eight
ENCODING 56
SWIDTH 620 0
DWIDTH 20 0
BBX 20 23 2 0
BITMAP
007F00
01E3C0
0780E0
0F0070
0E0070
0E0070
1E00F0
1F00E0
0FC3C0
0FFF00
03FE00
07FF80
1C1FC0
3807C0
7003E0
E001E0
E001E0
E001C0
E001C0
F00380
700700
3C3E00
0FF800
ENDCHAR

STARTCHAR nine
ENCODING 57
SWIDTH 620 0
DWIDTH 20 0
BBX 18 23 3 0
BITMAP
007800
03FE00
0F0700
1E0380
3C01C0
3801C0
7801C0
7001C0
7003C0
7003C0
7007C0
780FC0
3C1BC0
1FF380
07C780
000780
000700
400E00
E01E00
E01C00
F07800
7FE000
0F8000
ENDCHAR

STARTCHAR colon
ENCODING 58
SWIDTH 300 0
DWIDTH 10 0
BBX 6 16 3 0
BITMAP
18
3C
3C
18
00
00
00
00
00
00
00
00
60
F0
F0
60
ENDCHAR

STARTCHAR semicolon
ENCODING 59
SWIDTH 300 0
DWIDTH 10 0
BBX 6 20 3 -4
BITMAP
18
3C
3C
18
00
00
00
00
00
00
00
00
60
F0
F0
70
20
60
C0
80
ENDCHAR

STARTCHAR less
ENCODING 60
SWIDTH 600 0
DWIDTH 20 0
BBX 17 17 3 1
BITMAP
000180
000780
003F00
00FC00
03F000
1F8000
7E0000
F00000
F00000
FC0000
1F0000
07C000
01F800
007E00
001F80
000780
000180
ENDCHAR

STARTCHAR equal
ENCODING 61
SWIDTH 600 0
DWIDTH 20 0
BBX 17 10 3 5
BITMAP
FFFF80
FFFF80
FFFF80
000000
000000
000000
000000
FFFF80
FFFF80
FFFF80
ENDCHAR

STARTCHAR greater
ENCODING 62
SWIDTH 600 0
DWIDTH 20 0
BBX 17 17 3 1
BITMAP
C00000
F00000
7E0000
1F8000
07E000
00FC00
003F00
000780
000780
001F80
007C00
01F000
0FC000
3F0000
FC0000
F00000
C00000
ENDCHAR

STARTCHAR question
ENCODING 63
SWIDTH 540 0
DWIDTH 18 0
BBX 16 23 4 0
BITMAP
0FF0
3E3C
701E
E00F
E00F
E00F
E00F
001E
001E
003C
00F8
01E0
0780
0600
0C00
0C00
0800
0800
0000
1800
3C00
3C00
1800
ENDCHAR

STARTCHAR at
ENCODING 64
SWIDTH 780 0
DWIDTH 26 0
BBX 23 23 4 0
BITMAP
00FF80
03E3E0
070070
0C0018
18000C
307CEC
60E7E6
61C3C6
C383C2
C78382
870786
8F0786
8E0F06
8E0F04
CE0E0C
CC1E18
CC3E30
666EE4
73C78C
380018
1C0070
0783C0
01FF00
ENDCHAR

STARTCHAR A
ENCODING 65
SWIDTH 700 0
DWIDTH 23 0
BBX 25 23 -1 0
BITMAP
0003C000
0003E000
0007E000
0007E000
000CE000
000CE000
0018F000
0038F000
00307000
00707000
00607800
00E07800
00C07800
01FFF800
01803800
03003C00
07003C00
06003C00
0E003C00
0E001E00
1C001E00
3E003F00
FF80FF80
ENDCHAR

STARTCHAR B
ENCODING 66
SWIDTH 720 0
DWIDTH 24 0
BBX 24 23 1 0
BITMAP
0FFFFC
03F07E
03C01F
03C00F
03C007
038007
03800F
03800E
07801E
0780F8
07FFE0
0701F8
07001C
07001E
0F001E
0F000E
0E001E
0E001E
0E001E
1E003C
1E0078
3F83F0
FFFFC0
ENDCHAR

STARTCHAR C
ENCODING 67
SWIDTH 720 0
DWIDTH 24 0
BBX 22 23 3 0
BITMAP
001F00
00FFCC
03E07C
07803C
0F001C
1E001C
3C000C
3C000C
780000
780000
F80000
F00000
F00000
F00000
F00000
F00000
F00008
780018
780030
3C00E0
1F03C0
0FFF00
00F800
ENDCHAR

STARTCHAR D
ENCODING 68
SWIDTH 740 0
DWIDTH 24 0
BBX 25 23 1 0
BITMAP
1FFFF000
07F1FC00
07C03E00
03801E00
03800F00
07800F00
07800780
07000780
07000780
07000780
07000780
0F000780
0F000F80
0E000F00
0E000F00
0E000F00
1E001E00
1E001E00
1E003C00
1C007800
3C01F000
3F0FC000
FFFF0000
ENDCHAR

STARTCHAR E
ENCODING 69
SWIDTH 680 0
DWIDTH 22 0
BBX 24 23 1 0
BITMAP
0FFFFE
07FFFE
03E03E
03C00E
03C007
038007
038183
038180
078100
078300
07FF00
07FF00
070700
070200
0F0200
0F0200
0F0006
0E000E
0E001C
1E007C
1E01F8
7FFFF8
FFFFF0
ENDCHAR

STARTCHAR F
ENCODING 70
SWIDTH 620 0
DWIDTH 21 0
BBX 24 23 1 0
BITMAP
0FFFFE
0FFFFE
03C07E
03C01E
038006
038007
038083
078180
078100
078300
070F00
07FF00
070F00
0F0700
0F0200
0F0200
0E0000
0E0000
0E0000
1E0000
1E0000
3F0000
FF8000
ENDCHAR

STARTCHAR G
ENCODING 71
SWIDTH 760 0
DWIDTH 25 0
BBX 24 23 3 0
BITMAP
003E00
01FFD8
03C0F8
0F8078
1E0038
1E0018
3C000C
7C000C
780000
780000
F80000
F00000
F001FF
F000FC
F00078
F00078
F00078
780078
7800F0
3C01F0
1E07F0
0FFE30
01E000
ENDCHAR

STARTCHAR H
ENCODING 72
SWIDTH 800 0
DWIDTH 26 0
BBX 29 23 1 0
BITMAP
0FF81FF8
07E007E0
03C003C0
038003C0
03800380
03800380
07800780
07800780
07000780
07000700
07FFFF00
0F000700
0F000F00
0F000F00
0E000F00
0E000E00
0E000E00
1E001E00
1E001E00
1E001E00
1E001E00
3E003F00
FF81FF80
ENDCHAR

STARTCHAR I
ENCODING 73
SWIDTH 320 0
DWIDTH 11 0
BBX 13 23 1 0
BITMAP
0FF8
07E0
03C0
0380
0380
0380
0780
0780
0780
0700
0700
0700
0F00
0F00
0F00
0E00
0E00
0E00
1E00
1E00
1E00
3F00
FF80
ENDCHAR

STARTCHAR J
ENCODING 74
SWIDTH 560 0
DWIDTH 19 0
BBX 22 23 0 0
BITMAP
0007FC
0001F8
0001F0
0000E0
0000E0
0001E0
0001E0
0001C0
0001C0
0001C0
0003C0
0003C0
0003C0
300380
780380
F80780
F00780
E00700
E00F00
601E00
783C00
3FF800
07C000
ENDCHAR

STARTCHAR K
ENCODING 75
SWIDTH 720 0
DWIDTH 24 0
BBX 26 23 1 0
BITMAP
0FF8FFC0
07E03F00
03C03C00
03803800
0380E000
0781C000
07838000
07860000
071C0000
073E0000
077E0000
0FCF0000
0F878000
0F078000
0E03C000
0E03C000
0E01E000
1E01E000
1E00F000
1E00F800
1E007800
3E00FC00
FF83FF00
ENDCHAR

STARTCHAR L
ENCODING 76
SWIDTH 580 0
DWIDTH 19 0
BBX 21 23 1 0
BITMAP
0FF800
07E000
03C000
03C000
03C000
038000
038000
038000
078000
078000
070000
070000
070000
070000
0F0000
0F0000
0E0018
0E0038
0E0070
1E00F0
1E03E0
3F1FE0
FFFFE0
ENDCHAR

STARTCHAR M
ENCODING 77
SWIDTH 860 0
DWIDTH 28 0
BBX 31 23 1 0
BITMAP
0FE000FE
07F001F8
03F001F0
03F003F0
037003F0
037006E0
02700CE0
06780CE0
067819E0
067819E0
063831E0
063831C0
0C3861C0
0C3C61C0
0C3CC3C0
0C3CC3C0
0C1D83C0
0C1F0380
181F0380
181E0780
181E0780
3C1C0FC0
FF0C3FE0
ENDCHAR

STARTCHAR N
ENCODING 78
SWIDTH 720 0
DWIDTH 24 0
BBX 27 23 1 0
BITMAP
0FE01FE0
07F00780
03F00700
03780600
03780600
03380600
063C0600
063C0600
061E0600
061E0C00
060F0C00
060F0C00
0C0F0C00
0C078C00
0C078800
0C03D800
0C03D800
0801D800
1801F800
1801F800
1800F000
3C00F000
FF007000
ENDCHAR

STARTCHAR O
ENCODING 79
SWIDTH 760 0
DWIDTH 25 0
BBX 24 23 3 0
BITMAP
001F00
00FFF0
03E078
07803C
0F001E
1E001E
3C000E
3C000F
78000F
78000F
F8000F
F0000F
F0001F
F0001E
F0001E
F0003C
F0003C
780078
7800F0
3C01E0
1E07C0
0FFF00
00F800
ENDCHAR

STARTCHAR P
ENCODING 80
SWIDTH 600 0
DWIDTH 20 0
BBX 22 23 0 0
BITMAP
0FFFE0
03F0F8
03C03C
03C03C
03C01C
03801C
03803C
03803C
03803C
078078
0780F0
0703E0
07FF80
070000
0F0000
0F0000
0F0000
0E0000
0E0000
0E0000
1E0000
3F0000
FFC000
ENDCHAR

STARTCHAR Q
ENCODING 81
SWIDTH 780 0
DWIDTH 26 0
BBX 25 29 2 -6
BITMAP
000F8000
007FF800
01F03C00
03C01E00
07800F00
0F000F00
1E000700
1E000780
3C000780
3C000780
3C000780
78000780
78000780
78000F80
78000F00
78000F00
78000E00
78001E00
3C3FBC00
3C7FF800
1E60F000
07E3F000
01FF3800
70007000
F0007000
F000F000
7801E000
3F1F8000
07FE0000
ENDCHAR

STARTCHAR R
ENCODING 82
SWIDTH 700 0
DWIDTH 23 0
BBX 23 23 1 0
BITMAP
0FFFF8
07F0FC
03C03E
03801E
03800E
03800E
07801E
07801E
07003C
07007C
0701F0
0FFFE0
0F0F00
0F0780
0E0780
0E03C0
0E03C0
1E01E0
1E01F0
1E00F0
1E00F8
3E007C
FF807E
ENDCHAR

STARTCHAR S
ENCODING 83
SWIDTH 640 0
DWIDTH 21 0
BBX 20 23 2 0
BITMAP
00FC00
03FF60
0F83E0
1E00E0
1C0070
3C0030
3C0030
3E0000
1F8000
1FF800
07FF00
01FFC0
003FE0
0003F0
8000F0
C000F0
C000F0
E000E0
E001E0
F003C0
FC0F80
CFFE00
01F000
ENDCHAR

STARTCHAR T
ENCODING 84
SWIDTH 600 0
DWIDTH 20 0
BBX 22 23 2 0
BITMAP
3FFFF8
3F3CF8
78383C
70381C
60780C
C0780C
807804
007000
007000
007000
00F000
00F000
00F000
00E000
00E000
00E000
01E000
01E000
01E000
01C000
03E000
03E000
1FF800
ENDCHAR

STARTCHAR U
ENCODING 85
SWIDTH 720 0
DWIDTH 24 0
BBX 24 23 4 0
BITMAP
FF80FF
7E003C
3C0038
3C0030
380030
380030
780030
780030
780030
700060
700060
700060
F00060
F00060
F000C0
E000C0
E000C0
E000C0
F00180
F00380
7C0F00
3FFC00
07E000
ENDCHAR

STARTCHAR V
ENCODING 86
SWIDTH 680 0
DWIDTH 23 0
BBX 24 23 3 0
BITMAP
FF80FF
3E007C
3C0038
1C0030
1C0060
1E0060
1E00C0
0E00C0
0E0180
0E0180
0F0300
0F0300
070600
070C00
070C00
079800
079800
03B000
03B000
03E000
03E000
01C000
018000
ENDCHAR

STARTCHAR W
ENCODING 87
SWIDTH 960 0
DWIDTH 32 0
BBX 34 23 3 0
BITMAP
FF8FF83FC0
7E07E01F00
3C03C00E00
3C03C00C00
1C01C01800
1E01E01800
1E03E03000
1E03E03000
1E07E06000
0E06E06000
0E0CE0C000
0E0CE0C000
0F18F18000
0F18F18000
0F30F30000
0730730000
0760760000
0760760000
07407C0000
07C07C0000
0780780000
0380780000
0300300000
ENDCHAR

STARTCHAR X
ENCODING 88
SWIDTH 700 0
DWIDTH 23 0
BBX 28 23 -1 0
BITMAP
07FE1FF0
03F807C0
00F80700
00780600
00780C00
003C1800
003E3000
001E7000
001FE000
000FC000
00078000
00078000
000FC000
001BC000
0031E000
0060E000
00C0F000
01807800
03807800
07003C00
1E003C00
3F007F00
FF81FF80
ENDCHAR

STARTCHAR Y
ENCODING 89
SWIDTH 660 0
DWIDTH 22 0
BBX 24 23 3 0
BITMAP
FF81FF
7E007C
1E0070
1E0060
0E00C0
0F0180
0F0300
078200
078600
03CC00
03D800
01F000
01F000
00E000
00E000
01E000
01E000
01C000
01C000
01C000
03C000
07E000
1FF800
ENDCHAR

STARTCHAR Z
ENCODING 90
SWIDTH 580 0
DWIDTH 19 0
BBX 23 23 0 0
BITMAP
03FFFE
03F87E
07807C
0700F8
0E01F0
0C03E0
0003C0
000780
000F80
001F00
003E00
007C00
00F800
01F000
03E000
03C000
07C008
0F8018
1F0038
3E0070
7C01F0
FC0FE0
FFFFE0
ENDCHAR

STARTCHAR bracketleft
ENCODING 91
SWIDTH 260 0
DWIDTH 9 0
BBX 10 28 2 -4
BITMAP
07C0
0F00
0E00
0E00
0E00
0C00
0C00
1C00
1C00
1C00
1C00
1800
1800
3800
3800
3800
3800
3000
3000
7000
7000
7000
6000
6000
6000
E000
E000
F800
ENDCHAR

STARTCHAR backslash
ENCODING 92
SWIDTH 600 0
DWIDTH 20 0
BBX 15 24 3 0
BITMAP
E000
7000
7000
3800
3800
1C00
1C00
0E00
0E00
0700
0700
0380
0380
01C0
01C0
00E0
00E0
0070
0070
0038
0038
001C
001C
000E
ENDCHAR

STARTCHAR bracketright
ENCODING 93
SWIDTH 260 0
DWIDTH 9 0
BBX 10 28 0 -4
BITMAP
07C0
01C0
01C0
0180
0180
0380
0380
0380
0380
0300
0300
0700
0700
0700
0700
0600
0600
0E00
0E00
0E00
0E00
0C00
0C00
1C00
1C00
1C00
3C00
F800
ENDCHAR

STARTCHAR asciicircum
ENCODING 94
SWIDTH 600 0
DWIDTH 20 0
BBX 15 14 4 9
BITMAP
0380
07C0
07C0
0EE0
0EE0
1C70
1C70
3838
3838
701C
701C
E00E
E00E
C006
ENDCHAR

STARTCHAR underscore
ENCODING 95
SWIDTH 500 0
DWIDTH 17 0
BBX 17 2 0 -5
BITMAP
FFFF80
FFFF80
ENDCHAR

STARTCHAR quoteleft
ENCODING 96
SWIDTH 280 0
DWIDTH 9 0
BBX 4 8 7 15
BITMAP
10
30
60
40
E0
F0
F0
60
ENDCHAR

STARTCHAR a
ENCODING 97
SWIDTH 620 0
DWIDTH 20 0
BBX 20 16 3 0
BITMAP
01E000
07FB80
1E0F80
3C0380
380780
780700
F00700
F00700
F00F00
E00F00
E01E00
E01E00
F03E00
70EF30
3FC7E0
0F0380
ENDCHAR

STARTCHAR b
ENCODING 98
SWIDTH 600 0
DWIDTH 20 0
BBX 17 24 4 0
BITMAP
0E0000
7C0000
7C0000
1C0000
1C0000
1C0000
3C0000
380000
387C00
39FE00
3B0700
3E0780
7C0380
780380
780380
700780
700780
F00780
E00F00
E00F00
E01E00
F87C00
DFF000
C3C000
ENDCHAR

STARTCHAR c
ENCODING 99
SWIDTH 480 0
DWIDTH 16 0
BBX 15 16 2 0
BITMAP
01F0
07FC
1E1E
3C0E
780E
7800
F000
F000
F000
E000
E000
F000
F00C
7818
3FF0
0F80
ENDCHAR

STARTCHAR d
ENCODING 100
SWIDTH 640 0
DWIDTH 21 0
BBX 21 24 2 0
BITMAP
0000F0
0007E0
0003E0
0000E0
0000E0
0000E0
0001E0
0001C0
01F1C0
07FDC0
1F07C0
3C03C0
780380
780380
F00380
F00780
F00780
F00780
E00F00
E01F00
F03700
707798
3FC7F0
0F01C0
ENDCHAR

STARTCHAR e
ENCODING 101
SWIDTH 540 0
DWIDTH 18 0
BBX 17 16 2 0
BITMAP
00FE00
07CF00
0E0780
1C0380
3C0380
780700
701E00
F1FC00
FFC000
E00000
E00000
F00000
F00200
780E00
3FF800
07C000
ENDCHAR

STARTCHAR f
ENCODING 102
SWIDTH 340 0
DWIDTH 11 0
BBX 24 31 -6 -7
BITMAP
00007E
0000CF
000187
000380
000380
000780
000700
000700
003FE0
000700
000F00
000E00
000E00
000E00
000E00
000E00
001E00
001C00
001C00
001C00
001C00
001C00
003C00
003800
003800
003800
003000
407000
F06000
78C000
3F8000
ENDCHAR

STARTCHAR g
ENCODING 103
SWIDTH 560 0
DWIDTH 19 0
BBX 19 23 0 -7
BITMAP
0078E0
03FEE0
0783E0
0F01E0
0E01C0
1E01C0
3C01C0
3C03C0
3C03C0
380380
380780
380780
3C0F80
1C3F80
0FE700
07C700
000700
000F00
000E00
E01E00
F03C00
F8F000
3FC000
ENDCHAR

STARTCHAR h
ENCODING 104
SWIDTH 620 0
DWIDTH 20 0
BBX 20 24 3 0
BITMAP
0F0000
3E0000
3E0000
0E0000
0E0000
0E0000
1E0000
1C0000
1C3E00
1CFF80
1F8780
3E0380
3C0380
380380
380780
380700
380700
780700
700700
700700
700F00
700F10
F007F0
F003C0
ENDCHAR

STARTCHAR i
ENCODING 105
SWIDTH 280 0
DWIDTH 9 0
BBX 9 22 3 0
BITMAP
0F00
0F00
0F00
0E00
0000
0000
7C00
FC00
3C00
3C00
3800
3800
3800
3800
3800
7800
7000
7000
7000
7980
7F00
3C00
ENDCHAR

STARTCHAR j
ENCODING 106
SWIDTH 280 0
DWIDTH 9 0
BBX 17 29 -7 -7
BITMAP
000380
000780
000780
000700
000000
000000
003F00
003F00
000F00
000E00
000E00
000E00
000E00
001E00
001C00
001C00
001C00
001C00
001C00
003C00
003800
003800
003800
003800
007800
407000
F0E000
F9C000
7F0000
ENDCHAR

STARTCHAR k
ENCODING 107
SWIDTH 600 0
DWIDTH 20 0
BBX 19 24 3 0
BITMAP
1E0000
7E0000
1C0000
1C0000
1C0000
1C0000
1C0000
3C0000
3807C0
381FE0
383BC0
386000
38C000
7BC000
77E000
76E000
7CE000
78E000
F0F000
F07000
E07800
E07C00
E03FC0
E01F00
ENDCHAR

STARTCHAR l
ENCODING 108
SWIDTH 280 0
DWIDTH 9 0
BBX 8 24 3 0
BITMAP
3C
FC
3C
1C
1C
3C
38
38
38
38
38
78
70
70
70
70
F0
E0
E0
E0
E0
F3
FE
78
ENDCHAR

STARTCHAR m
ENCODING 109
SWIDTH 880 0
DWIDTH 29 0
BBX 29 16 3 0
BITMAP
0C780F00
FFFE7F80
7F0FC3C0
3C0F01C0
380E01C0
380E01C0
380E03C0
781E0380
701E0380
701C0380
701C0380
701C0780
F01C0780
E03C0790
E03803F8
E03801E0
ENDCHAR

STARTCHAR n
ENCODING 110
SWIDTH 620 0
DWIDTH 20 0
BBX 19 16 3 0
BITMAP
003C00
FDFE00
7F0F00
3E0700
380700
380700
380F00
780E00
700E00
700E00
700E00
700E00
F01E00
E00E60
E00FE0
E00700
ENDCHAR

STARTCHAR o
ENCODING 111
SWIDTH 540 0
DWIDTH 18 0
BBX 17 16 2 0
BITMAP
00F000
07FE00
1E0F00
3C0700
780780
780380
F00380
F00780
F00780
E00780
E00700
F00F00
F01E00
783C00
3FF000
078000
ENDCHAR

STARTCHAR p
ENCODING 112
SWIDTH 600 0
DWIDTH 20 0
BBX 21 23 -1 -7
BITMAP
00C7C0
0FCFF0
07B870
03E078
03E038
03C038
078038
078078
078078
070078
0700F0
0700E0
0F01E0
0F83C0
0EFF00
0E3C00
0E0000
1E0000
1C0000
1C0000
3C0000
FF8000
FF8000
ENDCHAR

STARTCHAR q
ENCODING 113
SWIDTH 560 0
DWIDTH 19 0
BBX 17 23 2 -7
BITMAP
01E000
0FFB80
1E0F80
3C0780
780700
780700
F00700
F00700
F00F00
E00E00
E01E00
E03E00
F03E00
707E00
3FDE00
1F1C00
001C00
001C00
001C00
003C00
003C00
007C00
01FF00
ENDCHAR

STARTCHAR r
ENCODING 114
SWIDTH 400 0
DWIDTH 13 0
BBX 13 16 3 0
BITMAP
3CF8
FFF8
3E78
3C00
3800
3800
3800
7800
7000
7000
7000
7000
7000
F000
E000
E000
ENDCHAR

STARTCHAR s
ENCODING 115
SWIDTH 540 0
DWIDTH 18 0
BBX 15 16 3 0
BITMAP
07F0
1E3C
381E
380E
3800
3E00
3F80
0FF0
03F8
00FC
003C
C01C
E01C
F038
7C70
1FC0
ENDCHAR

STARTCHAR t
ENCODING 116
SWIDTH 340 0
DWIDTH 11 0
BBX 11 22 3 0
BITMAP
0200
0200
0600
0600
0E00
3C00
FFE0
1C00
1C00
3C00
3800
3800
3800
3800
3800
7800
7000
7000
7000
7000
79C0
3F00
ENDCHAR

STARTCHAR u
ENCODING 117
SWIDTH 620 0
DWIDTH 21 0
BBX 19 16 3 0
BITMAP
7C0380
FC0380
3C0780
380700
380700
380700
380700
380700
780F00
700E00
700E00
701E00
703E00
78EF20
7FCFE0
1E0780
ENDCHAR

STARTCHAR v
ENCODING 118
SWIDTH 540 0
DWIDTH 18 0
BBX 16 16 3 0
BITMAP
FC0E
FC1F
3C0F
3C07
3807
3803
3803
3803
7806
7806
7004
700C
7018
7870
3FE0
1F00
ENDCHAR

STARTCHAR w
ENCODING 119
SWIDTH 880 0
DWIDTH 29 0
BBX 27 16 3 0
BITMAP
3C03C1C0
FC0383E0
3C0381E0
3C0380E0
380380E0
38078060
38078060
38070060
380700C0
780700C0
70070080
700F0180
701F0300
787F8E00
3FC7FC00
1F03F000
ENDCHAR

STARTCHAR x
ENCODING 120
SWIDTH 540 0
DWIDTH 18 0
BBX 20 16 1 0
BITMAP
038070
0F81F0
07C3F0
03C300
01C600
01EC00
00F800
00F000
01F000
017800
037800
063800
0C3C00
FC1E40
F81FE0
E00F80
ENDCHAR

STARTCHAR y
ENCODING 121
SWIDTH 600 0
DWIDTH 20 0
BBX 17 23 3 -7
BITMAP
7C0380
FC0380
3C0380
380700
380700
380700
380700
380700
780F00
700E00
700E00
701E00
703E00
78EE00
3F9C00
1E1C00
001C00
001C00
003800
C03800
E07000
F1E000
7F8000
ENDCHAR

STARTCHAR z
ENCODING 122
SWIDTH 520 0
DWIDTH 17 0
BBX 17 16 2 0
BITMAP
0FFF80
3E0780
3C0F00
381E00
303C00
007800
00F000
01E000
03C000
078000
0F0000
1E0000
3C0700
780F00
F01F00
FFFC00
ENDCHAR

STARTCHAR braceleft
ENCODING 123
SWIDTH 360 0
DWIDTH 12 0
BBX 10 30 5 -6
BITMAP
01C0
0700
0E00
0C00
0C00
1C00
1C00
1800
1800
1800
3800
3000
3000
7000
E000
C000
6000
6000
6000
6000
6000
6000
E000
E000
C000
C000
C000
C000
E000
7800
ENDCHAR

STARTCHAR bar
ENCODING 124
SWIDTH 600 0
DWIDTH 20 0
BBX 3 24 10 0
BITMAP
E0
E0
E0
E0
E0
E0
E0
E0
E0
E0
E0
E0
E0
E0
E0
E0
E0
E0
E0
E0
E0
E0
E0
E0
ENDCHAR

STARTCHAR braceright
ENCODING 125
SWIDTH 380 0
DWIDTH 13 0
BBX 10 30 0 -6
BITMAP
0700
0180
00C0
00C0
00C0
00C0
01C0
01C0
01C0
0180
0180
0180
0180
0180
01C0
00C0
0180
0300
0300
0700
0700
0600
0600
0600
0E00
0E00
0C00
1C00
1800
F000
ENDCHAR

STARTCHAR asciitilde
ENCODING 126
SWIDTH 600 0
DWIDTH 20 0
BBX 17 5 3 8
BITMAP
0E0300
3F8780
7FFF00
F1FE00
603800
ENDCHAR

STARTCHAR exclamdown
ENCODING 161
SWIDTH 320 0
DWIDTH 11 0
BBX 7 23 2 -7
BITMAP
0C
1E
1E
0C
00
08
08
08
18
18
18
18
38
38
38
78
78
78
F8
F8
F8
F0
F0
ENDCHAR

STARTCHAR cent
ENCODING 162
SWIDTH 620 0
DWIDTH 21 0
BBX 15 25 5 -1
BITMAP
0060
0060
0040
0040
03F0
0FFC
1EDE
3C8E
789E
709E
F180
F180
F180
E100
E100
E100
F30C
7318
7E70
1FE0
0200
0600
0600
0600
0400
ENDCHAR

STARTCHAR sterling
ENCODING 163
SWIDTH 620 0
DWIDTH 21 0
BBX 23 23 0 0
BITMAP
0007F8
001F3C
003C0E
007806
00700E
00F00E
00E01E
00E00C
00E000
00E000
0FFF80
00F000
00F000
00F000
00F000
00F000
00F1F0
1EF038
7FE018
E1F838
C1BFF8
E71FF0
7E07C0
ENDCHAR

STARTCHAR currency
ENCODING 164
SWIDTH 620 0
DWIDTH 21 0
BBX 17 17 3 3
BITMAP
43E100
EFFB80
7FFF00
3C1E00
780F00
700700
E00380
E00380
E00380
E00380
E00380
700700
780F00
3C1E00
7FFF00
EFFB80
43E100
ENDCHAR

STARTCHAR yen
ENCODING 165
SWIDTH 620 0
DWIDTH 21 0
BBX 21 23 3 0
BITMAP
7F87F8
3F03E0
1E01C0
0E0380
0F0300
0F0600
070C00
070C00
FF9FC0
039000
03B000
03E000
03C000
FFFF80
01C000
01C000
03C000
038000
038000
038000
078000
0FC000
3FF000
ENDCHAR

STARTCHAR brokenbar
ENCODING 166
SWIDTH 600 0
DWIDTH 20 0
BBX 3 24 10 0
BITMAP
E0
E0
E0
E0
E0
E0
E0
E0
00
00
00
00
00
00
00
00
E0
E0
E0
E0
E0
E0
E0
E0
ENDCHAR

STARTCHAR section
ENCODING 167
SWIDTH 620 0
DWIDTH 21 0
BBX 20 29 1 -6
BITMAP
007F80
01E1C0
0780F0
070070
0E0070
0E0070
0F0020
0FC000
07F800
03FF00
067FC0
0C0FE0
1801E0
1800E0
3800E0
3C00E0
1F80C0
1FF180
0FFF00
03FF80
007F80
0007C0
6003C0
F001C0
F003C0
F00380
700700
3C1E00
1FF000
ENDCHAR

STARTCHAR dieresis
ENCODING 168
SWIDTH 420 0
DWIDTH 14 0
BBX 10 4 2 17
BITMAP
6180
F3C0
F3C0
6180
ENDCHAR

STARTCHAR copyright
ENCODING 169
SWIDTH 740 0
DWIDTH 25 0
BBX 23 23 3 0
BITMAP
01FF00
07C7C0
0E00E0
180030
300018
607F0C
61C38C
438184
C30086
C70086
860002
860002
860002
860002
C70006
C30086
438184
61E78C
307E18
380038
1C0070
07C7C0
01FF00
ENDCHAR

STARTCHAR ordfeminine
ENCODING 170
SWIDTH 440 0
DWIDTH 15 0
BBX 13 13 3 10
BITMAP
0FF0
1CF0
3870
7060
7060
60E0
60E0
61E0
7368
3E78
0000
0000
FFF8
ENDCHAR

STARTCHAR guillemotleft
ENCODING 171
SWIDTH 300 0
DWIDTH 10 0
BBX 8 10 2 4
BITMAP
11
33
66
66
CC
CC
44
64
66
22
ENDCHAR

STARTCHAR logicalnot
ENCODING 172
SWIDTH 600 0
DWIDTH 20 0
BBX 17 9 3 6
BITMAP
FFFF80
FFFF80
FFFF80
000180
000180
000180
000180
000180
000180
ENDCHAR

STARTCHAR hyphen
ENCODING 173
SWIDTH 320 0
DWIDTH 11 0
BBX 7 2 3 9
BITMAP
FE
FE
ENDCHAR

STARTCHAR registered
ENCODING 174
SWIDTH 740 0
DWIDTH 25 0
BBX 23 23 3 0
BITMAP
01FE00
07C780
0E00E0
180070
300018
67FC18
61860C
C18304
C18306
C18306
818E02
81FC02
818C02
818C02
C18606
C18706
41830C
63E1CC
300018
180030
0C00E0
0787C0
01FF00
ENDCHAR

STARTCHAR macron
ENCODING 175
SWIDTH 440 0
DWIDTH 15 0
BBX 10 2 2 17
BITMAP
7FC0
FF80
ENDCHAR

STARTCHAR degree
ENCODING 176
SWIDTH 400 0
DWIDTH 13 0
BBX 10 10 4 13
BITMAP
1E00
6180
4080
8040
8040
8040
8040
4080
6180
1E00
ENDCHAR

STARTCHAR plusminus
ENCODING 177
SWIDTH 600 0
DWIDTH 20 0
BBX 17 18 3 0
BITMAP
01C000
01C000
01C000
01C000
01C000
FFFF80
FFFF80
FFFF80
01C000
01C000
01C000
01C000
01C000
000000
000000
FFFF80
FFFF80
FFFF80
ENDCHAR

STARTCHAR twosuperior
ENCODING 178
SWIDTH 372 0
DWIDTH 12 0
BBX 13 14 2 9
BITMAP
07E0
1C70
3038
3038
3038
0070
00E0
00C0
0380
0700
1C10
3830
7FE0
FFE0
ENDCHAR

STARTCHAR threesuperior
ENCODING 179
SWIDTH 372 0
DWIDTH 12 0
BBX 12 14 2 9
BITMAP
07C0
0C70
1830
1830
0070
00C0
07C0
0070
0070
0030
C070
C060
E1C0
3F00
ENDCHAR

STARTCHAR acute
ENCODING 180
SWIDTH 320 0
DWIDTH 11 0
BBX 6 5 2 17
BITMAP
1C
3C
7C
F0
C0
ENDCHAR

STARTCHAR mu
ENCODING 181
SWIDTH 620 0
DWIDTH 21 0
BBX 21 23 2 -7
BITMAP
0E01C0
7E01C0
1E01C0
1C01C0
1C03C0
1C0380
1C0380
1C0380
3C0380
380780
380700
380700
381F00
3C3F98
3FE7F0
7F03C0
700000
700000
F00000
F00000
F00000
F00000
E00000
ENDCHAR

STARTCHAR paragraph
ENCODING 182
SWIDTH 620 0
DWIDTH 21 0
BBX 19 23 4 0
BITMAP
07FFE0
1FE780
3FE700
7FE700
FFE700
FFE700
FFCE00
FFCE00
FFCE00
FFCE00
7FCE00
7FCE00
1F9C00
039C00
039C00
039C00
039C00
039C00
073800
073800
073800
0F3C00
3FFF00
ENDCHAR

STARTCHAR periodcentered
ENCODING 183
SWIDTH 300 0
DWIDTH 10 0
BBX 4 4 5 8
BITMAP
F0
F0
F0
F0
ENDCHAR

STARTCHAR cedilla
ENCODING 184
SWIDTH 320 0
DWIDTH 11 0
BBX 7 6 1 -6
BITMAP
10
3C
06
06
CC
78
ENDCHAR

STARTCHAR onesuperior
ENCODING 185
SWIDTH 372 0
DWIDTH 12 0
BBX 7 14 4 9
BITMAP
0E
3E
0E
0E
0C
0C
0C
0C
1C
18
18
18
38
FE
ENDCHAR

STARTCHAR ordmasculine
ENCODING 186
SWIDTH 400 0
DWIDTH 13 0
BBX 12 13 3 10
BITMAP
07C0
0E60
1870
3830
3030
3030
3070
3060
18C0
0F80
0000
0000
FFE0
ENDCHAR

STARTCHAR guillemotright
ENCODING 187
SWIDTH 300 0
DWIDTH 10 0
BBX 8 10 2 4
BITMAP
44
66
22
33
33
36
66
4C
C8
88
ENDCHAR

STARTCHAR onequarter
ENCODING 188
SWIDTH 930 0
DWIDTH 31 0
BBX 27 23 3 0
BITMAP
0E000800
3E001800
06003000
06007000
06006000
0E00C000
0C01C000
0C018000
0C030000
0C0601C0
1C0E03C0
180C07C0
18180FC0
FF381D80
00303980
00607180
00C0E180
01C1C380
0181FFE0
03000300
06000300
06000700
0C001FC0
ENDCHAR

STARTCHAR onehalf
ENCODING 189
SWIDTH 930 0
DWIDTH 31 0
BBX 28 23 3 0
BITMAP
0E001800
3E001800
0E003000
06007000
0E006000
0C00C000
0C018000
0C038000
0C030000
1C060FC0
180E38E0
180C6070
38186070
FE306070
007000E0
006001C0
00C00180
01800700
03800E00
03003820
06007060
0E00FFC0
0C01FFC0
ENDCHAR

STARTCHAR threequarters
ENCODING 190
SWIDTH 930 0
DWIDTH 31 0
BBX 27 23 3 0
BITMAP
0FC00300
1C700600
30300E00
30300C00
00701800
00C03800
07C03000
00706000
0070C000
0031C1C0
C07183C0
C06307C0
E1C60FC0
3F0E1D80
000C3980
00187180
0038E180
0031C380
0061FFE0
00C00300
01C00300
01800700
03001FC0
ENDCHAR

STARTCHAR questiondown
ENCODING 191
SWIDTH 540 0
DWIDTH 18 0
BBX 16 23 0 -7
BITMAP
0018
003C
003C
0018
0000
0010
0010
0030
0030
0060
01E0
0780
1F00
3C00
7800
7800
F007
F007
F007
F007
780E
3C7C
0FF0
ENDCHAR

STARTCHAR Agrave
ENCODING 192
SWIDTH 700 0
DWIDTH 23 0
BBX 24 26 -1 0
BITMAP
001C00
001E00
001F00
000780
000180
000000
000300
000780
000780
000F80
000FC0
0019C0
0031C0
0031E0
0060E0
00C0E0
00C0F0
018070
03FFF0
030078
060038
0C0038
0C003C
18001C
38003E
FE00FF
ENDCHAR

STARTCHAR Aacute
ENCODING 193
SWIDTH 700 0
DWIDTH 23 0
BBX 24 26 -1 0
BITMAP
0000E0
0001E0
0003E0
000780
000600
000000
000300
000780
000780
000F80
000FC0
0019C0
0031C0
0031E0
0060E0
00C0E0
00C0F0
018070
03FFF0
030078
060038
0C0038
0C003C
18001C
38003E
FE00FF
ENDCHAR

STARTCHAR Acircumflex
ENCODING 194
SWIDTH 700 0
DWIDTH 23 0
BBX 24 25 -1 0
BITMAP
000180
0007C0
001C60
007030
000000
000300
000780
000780
000F80
000FC0
0019C0
0031C0
0031E0
0060E0
00C0E0
00C0F0
018070
03FFF0
030078
060038
0C0038
0C003C
18001C
38003E
FE00FF
ENDCHAR

STARTCHAR Atilde
ENCODING 195
SWIDTH 700 0
DWIDTH 23 0
BBX 24 24 -1 0
BITMAP
000E30
001FE0
0031C0
000000
000300
000780
000780
000F80
000FC0
0019C0
0031C0
0031E0
0060E0
00C0E0
00C0F0
018070
03FFF0
030078
060038
0C0038
0C003C
18001C
38003E
FE00FF
ENDCHAR

STARTCHAR Adieresis
ENCODING 196
SWIDTH 700 0
DWIDTH 23 0
BBX 24 25 -1 0
BITMAP
001860
003CF0
003CF0
001860
000000
000300
000780
000780
000F80
000FC0
0019C0
0031C0
0031E0
0060E0
00C0E0
00C0F0
018070
03FFF0
030078
060038
0C0038
0C003C
18001C
38003E
FE00FF
ENDCHAR

STARTCHAR Aring
ENCODING 197
SWIDTH 700 0
DWIDTH 23 0
BBX 24 27 -1 0
BITMAP
000380
0006C0
000440
000440
0006C0
000380
000000
000300
000780
000780
000F80
000FC0
0019C0
0031C0
0031E0
0060E0
00C0E0
00C0F0
018070
03FFF0
030078
060038
0C0038
0C003C
18001C
38003E
FE00FF
ENDCHAR

STARTCHAR AE
ENCODING 198
SWIDTH 1220 0
DWIDTH 41 0
BBX 44 23 -2 0
BITMAP
0000003FFFE0
0000007F0FE0
000000DC01E0
000001BC00F0
0000033C0070
0000063C0030
00000C381830
000018381800
000030381000
000060783000
0000FFFFF000
0001FFFFF000
000300707000
000E00703000
001C00702000
003800F02000
007000F00060
00E000E000E0
01C000E001C0
038000E003C0
078001E00F80
1F8003F8FF80
FFE00FFFFF00
ENDCHAR

STARTCHAR Ccedilla
ENCODING 199
SWIDTH 720 0
DWIDTH 24 0
BBX 22 29 3 -6
BITMAP
001F00
00FFCC
03E07C
07803C
0F001C
1E001C
3C000C
3C000C
780000
780000
F80000
F00000
F00000
F00000
F00000
F00000
F00008
780018
780030
3C00E0
1F03C0
0FFF00
00F800
002000
007800
000C00
000C00
019800
00F000
ENDCHAR

STARTCHAR Egrave
ENCODING 200
SWIDTH 680 0
DWIDTH 22 0
BBX 24 26 1 0
BITMAP
001C00
001E00
001F00
000780
000180
000000
0FFFFE
07FFFE
03C00E
038006
038007
038083
038183
078300
07FF00
07FF00
070600
070200
070200
0E0006
0E0006
0E000C
0E001C
1F0078
7FFFF8
FFFFF0
ENDCHAR

STARTCHAR Eacute
ENCODING 201
SWIDTH 680 0
DWIDTH 22 0
BBX 24 26 1 0
BITMAP
000380
000780
000F80
001E00
001800
000000
0FFFFE
07FFFE
03C00E
038006
038007
038083
038183
078300
07FF00
07FF00
070600
070200
070200
0E0006
0E0006
0E000C
0E001C
1F0078
7FFFF8
FFFFF0
ENDCHAR

STARTCHAR Ecircumflex
ENCODING 202
SWIDTH 680 0
DWIDTH 22 0
BBX 24 25 1 0
BITMAP
000180
0007C0
001C60
007030
000000
0FFFFE
07FFFE
03C00E
038006
038007
038083
038183
078300
07FF00
07FF00
070600
070200
070200
0E0006
0E0006
0E000C
0E001C
1F0078
7FFFF8
FFFFF0
ENDCHAR

STARTCHAR Edieresis
ENCODING 203
SWIDTH 680 0
DWIDTH 22 0
BBX 24 25 1 0
BITMAP
001860
003CF0
003CF0
001860
000000
0FFFFE
07FFFE
03C00E
038006
038007
038083
038183
078300
07FF00
07FF00
070600
070200
070200
0E0006
0E0006
0E000C
0E001C
1F0078
7FFFF8
FFFFF0
ENDCHAR

STARTCHAR Igrave
ENCODING 204
SWIDTH 320 0
DWIDTH 11 0
BBX 13 26 1 0
BITMAP
0700
0780
07C0
01E0
0060
0000
0FF8
07E0
03C0
0380
0380
0380
0700
0700
0700
0700
0600
0E00
0E00
0E00
0E00
1C00
1C00
1C00
3E00
FF00
ENDCHAR

STARTCHAR Iacute
ENCODING 205
SWIDTH 320 0
DWIDTH 11 0
BBX 13 26 1 0
BITMAP
0070
00F0
01F0
03C0
0300
0000
0FF8
07E0
03C0
0380
0380
0380
0700
0700
0700
0700
0600
0E00
0E00
0E00
0E00
1C00
1C00
1C00
3E00
FF00
ENDCHAR

STARTCHAR Icircumflex
ENCODING 206
SWIDTH 320 0
DWIDTH 11 0
BBX 14 25 1 0
BITMAP
0060
01F0
0718
1C0C
0000
0FF8
07E0
03C0
0380
0380
0380
0700
0700
0700
0700
0600
0E00
0E00
0E00
0E00
1C00
1C00
1C00
3E00
FF00
ENDCHAR

STARTCHAR Idieresis
ENCODING 207
SWIDTH 320 0
DWIDTH 11 0
BBX 14 25 1 0
BITMAP
0618
0F3C
0F3C
0618
0000
0FF8
07E0
03C0
0380
0380
0380
0700
0700
0700
0700
0600
0E00
0E00
0E00
0E00
1C00
1C00
1C00
3E00
FF00
ENDCHAR

STARTCHAR Eth
ENCODING 208
SWIDTH 740 0
DWIDTH 25 0
BBX 25 23 1 0
BITMAP
1FFFF000
07F1FC00
07C03E00
03801E00
03800F00
07800F00
07800780
07000780
07000780
07000780
7FFE0780
0F000780
0F000F80
0E000F00
0E000F00
0E000F00
1E001E00
1E001E00
1E003C00
1C007800
3C01F000
7F0FC000
FFFF0000
ENDCHAR

STARTCHAR Ntilde
ENCODING 209
SWIDTH 720 0
DWIDTH 24 0
BBX 27 24 1 0
BITMAP
00071800
000FF000
0018E000
00000000
0FE01FE0
07F00780
03F00700
03F80600
03780600
033C0600
063C0C00
061E0C00
061E0C00
060F0C00
0C0F1800
0C079800
0C079800
0C03D800
0C03F800
1801F000
1801F000
1800F000
3C00F000
FF007000
ENDCHAR

STARTCHAR Ograve
ENCODING 210
SWIDTH 760 0
DWIDTH 25 0
BBX 24 26 3 0
BITMAP
003800
003C00
003E00
000F00
000300
000000
001F80
00FFF0
03E078
07803C
0F001E
1E001E
3C000F
3C000F
78000F
78000F
F0001E
F0001E
F0003C
F0003C
780078
7800F0
3C01E0
1E07C0
0FFF00
01F800
ENDCHAR

STARTCHAR Oacute
ENCODING 211
SWIDTH 760 0
DWIDTH 25 0
BBX 24 26 3 0
BITMAP
0001C0
0003C0
0007C0
000F00
000C00
000000
001F80
00FFF0
03E078
07803C
0F001E
1E001E
3C000F
3C000F
78000F
78000F
F0001E
F0001E
F0003C
F0003C
780078
7800F0
3C01E0
1E07C0
0FFF00
01F800
ENDCHAR

STARTCHAR Ocircumflex
ENCODING 212
SWIDTH 760 0
DWIDTH 25 0
BBX 24 25 3 0
BITMAP
000300
000F80
0038C0
00E060
000000
001F80
00FFF0
03E078
07803C
0F001E
1E001E
3C000F
3C000F
78000F
78000F
F0001E
F0001E
F0003C
F0003C
780078
7800F0
3C01E0
1E07C0
0FFF00
01F800
ENDCHAR

STARTCHAR Otilde
ENCODING 213
SWIDTH 760 0
DWIDTH 25 0
BBX 24 24 3 0
BITMAP
001C60
003FC0
006380
000000
001F80
00FFF0
03E078
07803C
0F001E
1E001E
3C000F
3C000F
78000F
78000F
F0001E
F0001E
F0003C
F0003C
780078
7800F0
3C01E0
1E07C0
0FFF00
01F800
ENDCHAR

STARTCHAR Odieresis
ENCODING 214
SWIDTH 760 0
DWIDTH 25 0
BBX 24 25 3 0
BITMAP
0030C0
0079E0
0079E0
0030C0
000000
001F80
00FFF0
03E078
07803C
0F001E
1E001E
3C000F
3C000F
78000F
78000F
F0001E
F0001E
F0003C
F0003C
780078
7800F0
3C01E0
1E07C0
0FFF00
01F800
ENDCHAR

STARTCHAR multiply
ENCODING 215
SWIDTH 600 0
DWIDTH 20 0
BBX 17 17 3 1
BITMAP
400100
E00380
700700
380E00
1C1C00
0E3800
077000
03E000
01C000
03E000
077000
0E3800
1C1C00
380E00
700700
E00380
400100
ENDCHAR

STARTCHAR Oslash
ENCODING 216
SWIDTH 760 0
DWIDTH 25 0
BBX 24 27 3 -2
BITMAP
00000C
000008
001F98
00FFF0
03E078
07807C
0F00DE
1E019E
3C010F
3C030F
78060F
780C0F
F8080F
F0181F
F0301F
F0601E
F0601E
F0C03C
F1803C
7B0078
7B00F0
3E01E0
1E07C0
0FFF00
19F800
300000
200000
ENDCHAR

STARTCHAR Ugrave
ENCODING 217
SWIDTH 720 0
DWIDTH 24 0
BBX 24 26 4 0
BITMAP
00E000
00F000
00F800
003C00
000C00
000000
FF80FF
7E003C
3C0038
380030
380030
380030
380030
700060
700060
700060
700060
700060
E000C0
E000C0
E000C0
E00180
F00380
7C0F00
3FFE00
0FF800
ENDCHAR

STARTCHAR Uacute
ENCODING 218
SWIDTH 720 0
DWIDTH 24 0
BBX 24 26 4 0
BITMAP
000700
000F00
001F00
003C00
003000
000000
FF80FF
7E003C
3C0038
380030
380030
380030
380030
700060
700060
700060
700060
700060
E000C0
E000C0
E000C0
E00180
F00380
7C0F00
3FFE00
0FF800
ENDCHAR

STARTCHAR Ucircumflex
ENCODING 219
SWIDTH 720 0
DWIDTH 24 0
BBX 24 25 4 0
BITMAP
000600
001F00
007180
01C0C0
000000
FF80FF
7E003C
3C0038
380030
380030
380030
380030
700060
700060
700060
700060
700060
E000C0
E000C0
E000C0
E00180
F00380
7C0F00
3FFE00
0FF800
ENDCHAR

STARTCHAR Udieresis
ENCODING 220
SWIDTH 720 0
DWIDTH 24 0
BBX 24 25 4 0
BITMAP
00C300
01E780
01E780
00C300
000000
FF80FF
7E003C
3C0038
380030
380030
380030
380030
700060
700060
700060
700060
700060
E000C0
E000C0
E000C0
E00180
F00380
7C0F00
3FFE00
0FF800
ENDCHAR

STARTCHAR Yacute
ENCODING 221
SWIDTH 660 0
DWIDTH 22 0
BBX 24 26 3 0
BITMAP
000E00
001E00
003E00
007800
006000
000000
FF81FF
3E007C
1E0070
0F0060
0F00C0
078180
078300
03C600
03CC00
01F800
01F000
00E000
00E000
00E000
01C000
01C000
01C000
03C000
07E000
1FF800
ENDCHAR

STARTCHAR Thorn
ENCODING 222
SWIDTH 600 0
DWIDTH 20 0
BBX 22 23 0 0
BITMAP
07FC00
03F000
01E000
01C000
01C000
01FFE0
03C0F8
03803C
03803C
03803C
07801C
07803C
07003C
07003C
070078
0F00F0
0F03E0
0FFF80
0E0000
0E0000
1F0000
3F0000
FFC000
ENDCHAR

STARTCHAR germandbls
ENCODING 223
SWIDTH 620 0
DWIDTH 21 0
BBX 26 27 -4 -4
BITMAP
0000FF00
0003E780
000701C0
000E01C0
001E01C0
001C0380
001C0F00
007C1E00
001C3000
003C7000
00387C00
00381F00
00380F80
003803C0
007801C0
007801C0
007003C0
007003C0
00700380
00700780
00E01F00
00EC7C00
01C7F000
01C00000
03800000
FE000000
78000000
ENDCHAR

STARTCHAR agrave
ENCODING 224
SWIDTH 620 0
DWIDTH 20 0
BBX 20 22 3 0
BITMAP
01C000
01E000
01F000
007800
001800
000000
01E000
07FB80
1E0F80
3C0380
380780
780700
F00700
F00700
F00F00
E00F00
E01E00
E01E00
F03E00
70EF30
3FC7E0
0F0380
ENDCHAR

STARTCHAR aacute
ENCODING 225
SWIDTH 620 0
DWIDTH 20 0
BBX 20 22 3 0
BITMAP
001C00
003C00
007C00
00F000
00C000
000000
01E000
07FB80
1E0F80
3C0380
380780
780700
F00700
F00700
F00F00
E00F00
E01E00
E01E00
F03E00
70EF30
3FC7E0
0F0380
ENDCHAR

STARTCHAR acircumflex
ENCODING 226
SWIDTH 620 0
DWIDTH 20 0
BBX 20 21 3 0
BITMAP
003000
00F800
038C00
0E0600
000000
01E000
07FB80
1E0F80
3C0380
380780
780700
F00700
F00700
F00F00
E00F00
E01E00
E01E00
F03E00
70EF30
3FC7E0
0F0380
ENDCHAR

STARTCHAR atilde
ENCODING 227
SWIDTH 620 0
DWIDTH 20 0
BBX 20 20 3 0
BITMAP
00E300
01FE00
031C00
000000
01E000
07FB80
1E0F80
3C0380
380780
780700
F00700
F00700
F00F00
E00F00
E01E00
E01E00
F03E00
70EF30
3FC7E0
0F0380
ENDCHAR

STARTCHAR adieresis
ENCODING 228
SWIDTH 620 0
DWIDTH 20 0
BBX 20 21 3 0
BITMAP
018600
03CF00
03CF00
018600
000000
01E000
07FB80
1E0F80
3C0380
380780
780700
F00700
F00700
F00F00
E00F00
E01E00
E01E00
F03E00
70EF30
3FC7E0
0F0380
ENDCHAR

STARTCHAR aring
ENCODING 229
SWIDTH 620 0
DWIDTH 20 0
BBX 20 23 3 0
BITMAP
007000
00D800
008800
008800
00D800
007000
000000
01E000
07FB80
1E0F80
3C0380
380780
780700
F00700
F00700
F00F00
E00F00
E01E00
E01E00
F03E00
70EF30
3FC7E0
0F0380
ENDCHAR

STARTCHAR ae
ENCODING 230
SWIDTH 880 0
DWIDTH 29 0
BBX 29 16 2 0
BITMAP
01FC1FE0
0F1F78F0
1C07E038
1C07C038
18078078
000780F0
00FF07E0
0FCFFE00
3C0F0000
780F0000
F00F0000
E01F0000
E0378060
F067C1C0
7FC3FF80
3E007C00
ENDCHAR

STARTCHAR ccedilla
ENCODING 231
SWIDTH 480 0
DWIDTH 16 0
BBX 15 22 2 -6
BITMAP
01F0
07FC
1E1E
3C0E
780E
7800
F000
F000
F000
E000
E000
F000
F00C
7818
3FF0
0F80
0100
03C0
0060
0060
0CC0
0780
ENDCHAR

STARTCHAR egrave
ENCODING 232
SWIDTH 540 0
DWIDTH 18 0
BBX 17 22 2 0
BITMAP
01C000
01E000
01F000
007800
001800
000000
00FE00
07CF00
0E0780
1C0380
3C0380
780700
701E00
F1FC00
FFC000
E00000
E00000
F00000
F00200
780E00
3FF800
07C000
ENDCHAR

STARTCHAR eacute
ENCODING 233
SWIDTH 540 0
DWIDTH 18 0
BBX 17 22 2 0
BITMAP
001C00
003C00
007C00
00F000
00C000
000000
00FE00
07CF00
0E0780
1C0380
3C0380
780700
701E00
F1FC00
FFC000
E00000
E00000
F00000
F00200
780E00
3FF800
07C000
ENDCHAR

STARTCHAR ecircumflex
ENCODING 234
SWIDTH 540 0
DWIDTH 18 0
BBX 17 21 2 0
BITMAP
001800
007C00
01C600
070300
000000
00FE00
07CF00
0E0780
1C0380
3C0380
780700
701E00
F1FC00
FFC000
E00000
E00000
F00000
F00200
780E00
3FF800
07C000
ENDCHAR

STARTCHAR edieresis
ENCODING 235
SWIDTH 540 0
DWIDTH 18 0
BBX 17 21 2 0
BITMAP
030C00
079E00
079E00
030C00
000000
00FE00
07CF00
0E0780
1C0380
3C0380
780700
701E00
F1FC00
FFC000
E00000
E00000
F00000
F00200
780E00
3FF800
07C000
ENDCHAR

STARTCHAR igrave
ENCODING 236
SWIDTH 280 0
DWIDTH 9 0
BBX 9 22 3 0
BITMAP
7000
7800
7C00
1E00
0600
0000
7C00
FC00
3C00
3C00
3800
3800
3800
3800
3800
7800
7000
7000
7000
7980
7F00
3C00
ENDCHAR

STARTCHAR iacute
ENCODING 237
SWIDTH 280 0
DWIDTH 9 0
BBX 9 22 3 0
BITMAP
0700
0F00
1F00
3C00
3000
0000
7C00
FC00
3C00
3C00
3800
3800
3800
3800
3800
7800
7000
7000
7000
7980
7F00
3C00
ENDCHAR

STARTCHAR icircumflex
ENCODING 238
SWIDTH 280 0
DWIDTH 9 0
BBX 11 21 1 0
BITMAP
0300
0F80
38C0
E060
0000
1F00
3F00
0F00
0F00
0E00
0E00
0E00
0E00
0E00
1E00
1C00
1C00
1C00
1E60
1FC0
0F00
ENDCHAR

STARTCHAR idieresis
ENCODING 239
SWIDTH 280 0
DWIDTH 9 0
BBX 10 21 3 0
BITMAP
6180
F3C0
F3C0
6180
0000
7C00
FC00
3C00
3C00
3800
3800
3800
3800
3800
7800
7000
7000
7000
7980
7F00
3C00
ENDCHAR

STARTCHAR eth
ENCODING 240
SWIDTH 540 0
DWIDTH 18 0
BBX 18 24 2 0
BITMAP
00C000
006000
0073C0
00FFC0
1FFC00
1F1E00
000E00
000F00
01F700
07FF00
1E0780
3C0780
780780
780380
F00380
F00780
F00780
E00780
E00700
F00F00
F01E00
783C00
3FF000
078000
ENDCHAR

STARTCHAR ntilde
ENCODING 241
SWIDTH 620 0
DWIDTH 20 0
BBX 19 20 3 0
BITMAP
038C00
07F800
0C7000
000000
003C00
FDFE00
7F0F00
3E0700
380700
380700
380F00
780E00
700E00
700E00
700E00
700E00
F01E00
E00E60
E00FE0
E00700
ENDCHAR

STARTCHAR ograve
ENCODING 242
SWIDTH 540 0
DWIDTH 18 0
BBX 17 22 2 0
BITMAP
038000
03C000
03E000
00F000
003000
000000
00F000
07FE00
1E0F00
3C0700
780780
780380
F00380
F00780
F00780
E00780
E00700
F00F00
F01E00
783C00
3FF000
078000
ENDCHAR

STARTCHAR oacute
ENCODING 243
SWIDTH 540 0
DWIDTH 18 0
BBX 17 22 2 0
BITMAP
003800
007800
00F800
01E000
018000
000000
00F000
07FE00
1E0F00
3C0700
780780
780380
F00380
F00780
F00780
E00780
E00700
F00F00
F01E00
783C00
3FF000
078000
ENDCHAR

STARTCHAR ocircumflex
ENCODING 244
SWIDTH 540 0
DWIDTH 18 0
BBX 17 21 2 0
BITMAP
003000
00F800
038C00
0E0600
000000
00F000
07FE00
1E0F00
3C0700
780780
780380
F00380
F00780
F00780
E00780
E00700
F00F00
F01E00
783C00
3FF000
078000
ENDCHAR

STARTCHAR otilde
ENCODING 245
SWIDTH 540 0
DWIDTH 18 0
BBX 17 20 2 0
BITMAP
01C600
03FC00
063800
000000
00F000
07FE00
1E0F00
3C0700
780780
780380
F00380
F00780
F00780
E00780
E00700
F00F00
F01E00
783C00
3FF000
078000
ENDCHAR

STARTCHAR odieresis
ENCODING 246
SWIDTH 540 0
DWIDTH 18 0
BBX 17 21 2 0
BITMAP
030C00
079E00
079E00
030C00
000000
00F000
07FE00
1E0F00
3C0700
780780
780380
F00380
F00780
F00780
E00780
E00700
F00F00
F01E00
783C00
3FF000
078000
ENDCHAR

STARTCHAR divide
ENCODING 247
SWIDTH 600 0
DWIDTH 20 0
BBX 17 16 3 2
BITMAP
03C000
03C000
03C000
03C000
000000
000000
000000
FFFF80
FFFF80
FFFF80
000000
000000
03C000
03C000
03C000
03C000
ENDCHAR

STARTCHAR oslash
ENCODING 248
SWIDTH 540 0
DWIDTH 18 0
BBX 17 19 2 -2
BITMAP
000300
03FF00
0F1E00
1C0F00
3C1F80
783780
706380
F06380
F0C780
F18780
E30780
E60700
FC0F00
FC1E00
781C00
3C7800
7FE000
C00000
C00000
ENDCHAR

STARTCHAR ugrave
ENCODING 249
SWIDTH 620 0
DWIDTH 21 0
BBX 19 22 3 0
BITMAP
038000
03C000
03E000
00F000
003000
000000
7C0380
FC0380
3C0780
380700
380700
380700
380700
380700
780F00
700E00
700E00
701E00
703E00
78EF20
7FCFE0
1E0780
ENDCHAR

STARTCHAR uacute
ENCODING 250
SWIDTH 620 0
DWIDTH 21 0
BBX 19 22 3 0
BITMAP
003800
007800
00F800
01E000
018000
000000
7C0380
FC0380
3C0780
380700
380700
380700
380700
380700
780F00
700E00
700E00
701E00
703E00
78EF20
7FCFE0
1E0780
ENDCHAR

STARTCHAR ucircumflex
ENCODING 251
SWIDTH 620 0
DWIDTH 21 0
BBX 19 21 3 0
BITMAP
003000
00F800
038C00
0E0600
000000
7C0380
FC0380
3C0780
380700
380700
380700
380700
380700
780F00
700E00
700E00
701E00
703E00
78EF20
7FCFE0
1E0780
ENDCHAR

STARTCHAR udieresis
ENCODING 252
SWIDTH 620 0
DWIDTH 21 0
BBX 19 21 3 0
BITMAP
030C00
079E00
079E00
030C00
000000
7C0380
FC0380
3C0780
380700
380700
380700
380700
380700
780F00
700E00
700E00
701E00
703E00
78EF20
7FCFE0
1E0780
ENDCHAR

STARTCHAR yacute
ENCODING 253
SWIDTH 600 0
DWIDTH 20 0
BBX 17 29 3 -7
BITMAP
003800
007800
00F800
01E000
018000
000000
7C0380
FC0380
3C0380
380700
380700
380700
380700
380700
780F00
700E00
700E00
701E00
703E00
78EE00
3F9C00
1E1C00
001C00
001C00
003800
C03800
E07000
F1E000
7F8000
ENDCHAR

STARTCHAR thorn
ENCODING 254
SWIDTH 600 0
DWIDTH 20 0
BBX 21 31 -1 -7
BITMAP
00E000
07E000
01E000
01E000
01C000
01C000
01C000
01C000
01C7C0
03DFF0
03B870
03E078
03E038
03C038
078038
078078
078078
070078
0700F0
0700E0
0F01E0
0F83C0
0EFF00
0E3C00
0E0000
1E0000
1C0000
1C0000
1C0000
3E0000
FF8000
ENDCHAR

STARTCHAR ydieresis
ENCODING 255
SWIDTH 600 0
DWIDTH 20 0
BBX 17 28 3 -7
BITMAP
030C00
079E00
079E00
030C00
000000
7C0380
FC0380
3C0380
380700
380700
380700
380700
380700
780F00
700E00
700E00
701E00
703E00
78EE00
3F9C00
1E1C00
001C00
001C00
003800
C03800
E07000
F1E000
7F8000
ENDCHAR
ENDFONT
